<svg width="160" height="26" xmlns="http://www.w3.org/2000/svg" fill="none">

 <g>
  <title>Layer 1</title>
  <path id="svg_1" fill="white" d="m24.7742,0.66699l0,4.7823l7.2432,0l0,17.94521l5.1264,0l0,-17.94521l7.2433,0l0,-4.7823l-19.6129,0z"/>
  <path id="svg_2" fill="white" d="m101.731,18.5385c-0.788,0 -1.667,-0.3988 -1.667,-2.3467c0,-1.948 0.872,-2.2923 1.667,-2.2923l9.781,0l0,4.638l-9.781,0.001zm7.532,-17.87151l-13.0654,0l0,4.82407l12.7184,0c1.867,0 2.595,0.84393 2.595,3.02313c0,0.01028 0,0.61676 0,0.80281l-10.541,0c-4.0083,0 -6.0022,1.9962 -6.0022,6.5057l0,1.0742c0,4.6421 2.0652,6.4976 6.2202,6.4976l15.457,0l0,-14.94199c0,-5.72658 -1.901,-7.78552 -7.382,-7.78552"/>
  <path id="svg_3" fill="white" d="m145.086,18.5385c-0.784,0 -1.667,-0.3988 -1.667,-2.3467c0,-1.948 0.873,-2.2923 1.667,-2.2923l9.789,0l0,4.638l-9.789,0.001zm7.531,-17.87151l-13.066,0l0,4.82407l12.727,0c1.859,0 2.595,0.84393 2.595,3.02313l0,0.80281l-10.544,0c-4.01,0 -6.006,1.9962 -6.006,6.5057l0,1.0742c0,4.6421 2.07,6.4976 6.221,6.4976l15.456,0l0,-14.94199c0,-5.72658 -1.89,-7.78552 -7.386,-7.78552"/>
  <path id="svg_4" fill="white" d="m45.4194,0.66699l0,4.7823l7.2408,0l0,17.94521l5.1314,0l0,-17.94521l7.2407,0l0,-4.7823l-19.6129,0z"/>
  <path id="svg_5" fill="white" d="m117.677,0.66699l0,4.7823l7.244,0l0,17.94521l5.126,0l0,-17.94521l7.243,0l0,-4.7823l-19.613,0z"/>
  <path id="svg_6" fill="white" d="m88.5824,15.5376c0,2.1835 -0.7442,3.0243 -2.6291,3.0243l-8.4538,0l0,-13.05521l8.4538,0c1.886,0 2.6291,0.84602 2.6291,3.02738l0,7.00353zm5.3531,-0.1027l0,-6.80009c0,-5.96224 -2.3473,-7.96782 -7.6346,-7.96782l-14.0428,0l0,22.72751l14.286,0c5.6202,0 7.3914,-2.7447 7.3914,-7.9596"/>
  <path id="svg_7" fill="white" d="m17.1043,17.8399c-0.1113,-0.2009 -7.1022,-13.34373 -7.95779,-14.63762c-0.42249,-0.78821 -1.06798,-1.44455 -1.86156,-1.89284c-0.79358,-0.44828 -1.70265,-0.67011 -2.62164,-0.63969c-2.13387,0 -4.66331,0.91115 -4.66331,5.85868l0,16.60867l5.15671,0l0,-13.85212c0,-0.99352 -0.06558,-2.46622 -0.07599,-2.76157c-0.01145,-0.24712 -0.00001,-0.47919 0.12802,-0.55051c0.14781,-0.08238 0.29668,0.05525 0.39765,0.23909c0.10097,0.18383 6.57961,12.55011 7.95471,14.64071c0.4235,0.7878 1.069,1.4442 1.8622,1.8935c0.7932,0.4493 1.7017,0.6733 2.621,0.646c2.1338,0 4.6654,-0.9222 4.6654,-5.8677l0,-16.61365l-5.1598,0l0,13.85505c0,0.9946 0.0655,2.4733 0.078,2.7656c0.0125,0.2472 0,0.4712 -0.1291,0.5505c-0.1457,0.0794 -0.2956,-0.0592 -0.3945,-0.2421"/>
  <g>
   <g>
    <title>Layer 1</title>
    <path d="m24.7742,1.63624l0,4.7823l7.2432,0l0,17.94521l5.1264,0l0,-17.94521l7.2433,0l0,-4.7823l-19.6129,0z" fill="white" id="svg_15"/>
    <path d="m101.731,19.50775c-0.788,0 -1.667,-0.3988 -1.667,-2.3467c0,-1.948 0.872,-2.2923 1.667,-2.2923l9.781,0l0,4.638l-9.781,0.001zm7.532,-17.87151l-13.0654,0l0,4.82407l12.7184,0c1.867,0 2.595,0.84393 2.595,3.02313c0,0.01028 0,0.61676 0,0.80281l-10.541,0c-4.0083,0 -6.0022,1.9962 -6.0022,6.5057l0,1.0742c0,4.6421 2.0652,6.4976 6.2202,6.4976l15.457,0l0,-14.94199c0,-5.72658 -1.901,-7.78552 -7.382,-7.78552" fill="white" id="svg_14"/>
    <path d="m145.086,19.50775c-0.784,0 -1.667,-0.3988 -1.667,-2.3467c0,-1.948 0.873,-2.2923 1.667,-2.2923l9.789,0l0,4.638l-9.789,0.001zm7.531,-17.87151l-13.066,0l0,4.82407l12.727,0c1.859,0 2.595,0.84393 2.595,3.02313l0,0.80281l-10.544,0c-4.01,0 -6.006,1.9962 -6.006,6.5057l0,1.0742c0,4.6421 2.07,6.4976 6.221,6.4976l15.456,0l0,-14.94199c0,-5.72658 -1.89,-7.78552 -7.386,-7.78552" fill="white" id="svg_13"/>
    <path d="m45.4194,1.63624l0,4.7823l7.2408,0l0,17.94521l5.1314,0l0,-17.94521l7.2407,0l0,-4.7823l-19.6129,0z" fill="white" id="svg_12"/>
    <path d="m117.677,1.63624l0,4.7823l7.244,0l0,17.94521l5.126,0l0,-17.94521l7.243,0l0,-4.7823l-19.613,0z" fill="white" id="svg_11"/>
    <path d="m88.5824,16.50685c0,2.1835 -0.7442,3.0243 -2.6291,3.0243l-8.4538,0l0,-13.05521l8.4538,0c1.886,0 2.6291,0.84602 2.6291,3.02738l0,7.00353zm5.3531,-0.1027l0,-6.80009c0,-5.96224 -2.3473,-7.96782 -7.6346,-7.96782l-14.0428,0l0,22.72751l14.286,0c5.6202,0 7.3914,-2.7447 7.3914,-7.9596" fill="white" id="svg_10"/>
    <path d="m17.1043,18.80915c-0.1113,-0.2009 -7.1022,-13.34373 -7.95779,-14.63762c-0.42249,-0.78821 -1.06798,-1.44455 -1.86156,-1.89284c-0.79358,-0.44828 -1.70265,-0.67011 -2.62164,-0.63969c-2.13387,0 -4.66331,0.91115 -4.66331,5.85868l0,16.60867l5.15671,0l0,-13.85212c0,-0.99352 -0.06558,-2.46622 -0.07599,-2.76157c-0.01145,-0.24712 -0.00001,-0.47919 0.12802,-0.55051c0.14781,-0.08238 0.29668,0.05525 0.39765,0.23909c0.10097,0.18383 6.57961,12.55011 7.95471,14.64071c0.4235,0.7878 1.069,1.4442 1.8622,1.8935c0.7932,0.4493 1.7017,0.6733 2.621,0.646c2.1338,0 4.6654,-0.9222 4.6654,-5.8677l0,-16.61365l-5.1598,0l0,13.85505c0,0.9946 0.0655,2.4733 0.078,2.7656c0.0125,0.2472 0,0.4712 -0.1291,0.5505c-0.1457,0.0794 -0.2956,-0.0592 -0.3945,-0.2421" fill="white" id="svg_9"/>
   </g>
  </g>
 </g>
</svg>